<svg id="Layer_1" enable-background="new 0 0 496 496" height="512" viewBox="0 0 496 496" width="512" xmlns="http://www.w3.org/2000/svg"><path d="m209.381 181.917c-8.837 0-16-7.164-16-16v-5.136c0-8.836 7.163-16 16-16s16 7.164 16 16v5.136c0 8.836-7.163 16-16 16zm93.238-16v-5.136c0-8.836-7.163-16-16-16s-16 7.164-16 16v5.136c0 8.836 7.163 16 16 16s16-7.164 16-16zm89.051-49.157v79.86c0 69.465-53.162 137.81-143.67 137.81-89.697 0-143.67-67.624-143.67-137.81v-79.86c0-64.38 52.12-116.76 116.19-116.76h54.96c64.07 0 116.19 52.38 116.19 116.76zm-107.67 181.03v-35.4c0-10.93-8.8-19.83-19.62-19.83h-32.76c-10.82 0-19.62 8.9-19.62 19.83v35.4c21.278 6.079 50.074 6.264 72 0zm75.67-181.03c0-46.74-37.76-84.76-84.19-84.76h-54.96c-46.43 0-84.19 38.02-84.19 84.76v79.86c0 35.21 16.93 66.57 43.67 85.73v-19.96c0-28.58 23.16-51.83 51.62-51.83h32.76c28.46 0 51.62 23.25 51.62 51.83v19.96c26.74-19.16 43.67-50.52 43.67-85.73zm-109.711 283.317c31.964-2 37.914-47.443 14.603-47.443h-33.121c-6.592 0-12.292 4.663-13.527 11.138-3.739 19.603 12.04 37.556 32.045 36.305zm-82.345 95.923h160.771c4.418 0 8-3.582 8-8v-127.289c0-4.324-3.436-7.846-7.757-8.001-1.426-.051-2.858-.077-4.296-.077-7.861 0-14.065 6.563-13.755 14.418 1.402 35.442-27.065 65.087-62.578 65.087-35.509 0-63.981-29.64-62.578-65.087.311-7.854-5.894-14.418-13.755-14.418-1.438 0-2.87.026-4.296.077-4.321.154-7.757 3.677-7.757 8.001v127.289c.001 4.418 3.583 8 8.001 8zm-40-122.525c0-6.037-6.422-9.881-11.763-7.069-38.513 20.278-64.851 60.852-64.851 107.491v6.103c0 8.837 7.163 16 16 16h52.614c4.418 0 8-3.582 8-8zm240.772 0v114.525c0 4.418 3.582 8 8 8h52.614c8.837 0 16-7.163 16-16v-6.103c0-46.64-26.338-87.213-64.851-107.491-5.341-2.812-11.763 1.032-11.763 7.069z"/></svg>