<?xml version="1.0" encoding="UTF-8" standalone="no"?>
<!-- Generator: Adobe Illustrator 19.0.0, SVG Export Plug-In . SVG Version: 6.00 Build 0)  -->

<svg
   xmlns:dc="http://purl.org/dc/elements/1.1/"
   xmlns:cc="http://creativecommons.org/ns#"
   xmlns:rdf="http://www.w3.org/1999/02/22-rdf-syntax-ns#"
   xmlns:svg="http://www.w3.org/2000/svg"
   xmlns="http://www.w3.org/2000/svg"
   xmlns:sodipodi="http://sodipodi.sourceforge.net/DTD/sodipodi-0.dtd"
   xmlns:inkscape="http://www.inkscape.org/namespaces/inkscape"
   version="1.1"
   id="Capa_1"
   x="0px"
   y="0px"
   viewBox="0 0 490.7 490.7"
   style="enable-background:new 0 0 490.7 490.7;"
   xml:space="preserve"
   sodipodi:docname="bed.svg"
   inkscape:version="0.92.4 (5da689c313, 2019-01-14)"><metadata
   id="metadata55"><rdf:RDF><cc:Work
       rdf:about=""><dc:format>image/svg+xml</dc:format><dc:type
         rdf:resource="http://purl.org/dc/dcmitype/StillImage" /></cc:Work></rdf:RDF></metadata><defs
   id="defs53" /><sodipodi:namedview
   pagecolor="#ffffff"
   bordercolor="#666666"
   borderopacity="1"
   objecttolerance="10"
   gridtolerance="10"
   guidetolerance="10"
   inkscape:pageopacity="0"
   inkscape:pageshadow="2"
   inkscape:window-width="1366"
   inkscape:window-height="717"
   id="namedview51"
   showgrid="false"
   inkscape:zoom="0.48094558"
   inkscape:cx="245.35001"
   inkscape:cy="245.35001"
   inkscape:window-x="0"
   inkscape:window-y="27"
   inkscape:window-maximized="1"
   inkscape:current-layer="Capa_1" />
<g
   id="g6">
	<g
   id="g4">
		<path
   d="M436.2,154.6H182.4c-12.4,0-33.1,4.7-33.1,36.6V240h320v-48.8C469.3,159.4,448.6,154.6,436.2,154.6z"
   id="path2" />
	</g>
</g>
<g
   id="g12">
	<g
   id="g10">
		<polygon
   points="80.3,250.6 32,250.6 32,80 0,80 0,410.7 32,410.7 32,325.3 458.7,325.3 458.7,410.6 490.7,410.6 490.7,250.6       "
   id="polygon8" />
	</g>
</g>
<g
   id="g18">
	<g
   id="g16">
		<circle
   cx="85.3"
   cy="197.3"
   r="44.7"
   id="circle14" />
	</g>
</g>
<g
   id="g20">
</g>
<g
   id="g22">
</g>
<g
   id="g24">
</g>
<g
   id="g26">
</g>
<g
   id="g28">
</g>
<g
   id="g30">
</g>
<g
   id="g32">
</g>
<g
   id="g34">
</g>
<g
   id="g36">
</g>
<g
   id="g38">
</g>
<g
   id="g40">
</g>
<g
   id="g42">
</g>
<g
   id="g44">
</g>
<g
   id="g46">
</g>
<g
   id="g48">
</g>
<path
   style="fill:#ffffff;stroke-width:2.07923722"
   d="m 150.54001,209.48316 c 0.004,-33.56958 2.07711,-40.62908 14.33911,-48.82063 l 7.065,-4.71973 137.44199,0.008 c 132.64948,0.007 137.6741,0.14929 144.09857,4.06652 11.86808,7.23639 13.98017,14.14149 14.81238,48.42645 l 0.74443,30.66874 H 309.78914 150.53678 Z"
   id="path57"
   inkscape:connector-curvature="0" /><path
   style="fill:#ffffff;stroke-width:2.07923722"
   d="M 0.83169494,245.35001 V 81.090256 H 16.425975 32.020255 v 85.248734 85.24873 H 260.73636 489.45247 v 79.01102 79.01102 H 474.89781 460.34315 V 366.98539 324.36103 H 246.1817 32.020255 v 42.62436 42.62437 H 16.425975 0.83169494 Z"
   id="path59"
   inkscape:connector-curvature="0" /><path
   style="fill:#ffffff;stroke-width:2.07923722"
   d="m 68.290872,237.38624 c -10.600505,-4.96123 -23.320755,-19.62102 -25.057384,-28.87805 -2.262108,-12.05807 0.257792,-26.93183 6.044127,-35.67558 7.920323,-11.96841 24.81146,-19.7887 40.018098,-18.52765 31.349967,2.59978 49.400057,37.54998 33.449407,64.76771 -10.82107,18.46476 -36.022093,26.94015 -54.454248,18.31357 z"
   id="path61"
   inkscape:connector-curvature="0" /></svg>