<?xml version="1.0" encoding="UTF-8" standalone="no"?>
<svg
   xmlns:dc="http://purl.org/dc/elements/1.1/"
   xmlns:cc="http://creativecommons.org/ns#"
   xmlns:rdf="http://www.w3.org/1999/02/22-rdf-syntax-ns#"
   xmlns:svg="http://www.w3.org/2000/svg"
   xmlns="http://www.w3.org/2000/svg"
   xmlns:sodipodi="http://sodipodi.sourceforge.net/DTD/sodipodi-0.dtd"
   xmlns:inkscape="http://www.inkscape.org/namespaces/inkscape"
   height="512pt"
   viewBox="0 0 512 512"
   width="512pt"
   version="1.1"
   id="svg26"
   sodipodi:docname="facebook.svg"
   inkscape:version="0.92.4 (5da689c313, 2019-01-14)">
  <metadata
     id="metadata32">
    <rdf:RDF>
      <cc:Work
         rdf:about="">
        <dc:format>image/svg+xml</dc:format>
        <dc:type
           rdf:resource="http://purl.org/dc/dcmitype/StillImage" />
      </cc:Work>
    </rdf:RDF>
  </metadata>
  <defs
     id="defs30" />
  <sodipodi:namedview
     pagecolor="#ffffff"
     bordercolor="#666666"
     borderopacity="1"
     objecttolerance="10"
     gridtolerance="10"
     guidetolerance="10"
     inkscape:pageopacity="0"
     inkscape:pageshadow="2"
     inkscape:window-width="1366"
     inkscape:window-height="717"
     id="namedview28"
     showgrid="false"
     inkscape:zoom="0.34570313"
     inkscape:cx="341.33333"
     inkscape:cy="341.33333"
     inkscape:window-x="0"
     inkscape:window-y="27"
     inkscape:window-maximized="1"
     inkscape:current-layer="svg26" />
  <path
     d="m297.277344 508.667969c-2.132813.347656-4.273438.667969-6.421875.960937 2.148437-.292968 4.289062-.613281 6.421875-.960937zm0 0"
     id="path2" />
  <path
     d="m302.398438 507.792969c-1.019532.1875-2.039063.359375-3.058594.535156 1.019531-.175781 2.039062-.347656 3.058594-.535156zm0 0"
     id="path4" />
  <path
     d="m285.136719 510.339844c-2.496094.28125-5.007813.53125-7.527344.742187 2.519531-.210937 5.03125-.460937 7.527344-.742187zm0 0"
     id="path6" />
  <path
     d="m290.054688 509.738281c-1.199219.160157-2.40625.308594-3.609376.449219 1.203126-.140625 2.410157-.289062 3.609376-.449219zm0 0"
     id="path8" />
  <path
     d="m309.367188 506.410156c-.898438.191406-1.800782.382813-2.703126.566406.902344-.183593 1.804688-.375 2.703126-.566406zm0 0"
     id="path10" />
  <path
     d="m326.664062 502.113281c-.726562.207031-1.453124.402344-2.179687.605469.726563-.203125 1.453125-.398438 2.179687-.605469zm0 0"
     id="path12" />
  <path
     d="m321.433594 503.542969c-.789063.207031-1.582032.417969-2.375.617187.792968-.199218 1.585937-.40625 2.375-.617187zm0 0"
     id="path14" />
  <path
     d="m314.589844 505.253906c-.835938.195313-1.679688.378906-2.523438.566406.84375-.1875 1.6875-.371093 2.523438-.566406zm0 0"
     id="path16" />
  <path
     d="m277.527344 511.089844c-1.347656.113281-2.695313.214844-4.046875.304687 1.351562-.089843 2.699219-.191406 4.046875-.304687zm0 0"
     id="path18" />
  <path
     d="m512 256c0-141.363281-114.636719-256-256-256s-256 114.636719-256 256 114.636719 256 256 256c1.503906 0 3-.03125 4.5-.058594v-199.285156h-55v-64.097656h55v-47.167969c0-54.703125 33.394531-84.476563 82.191406-84.476563 23.367188 0 43.453125 1.742188 49.308594 2.519532v57.171875h-33.648438c-26.546874 0-31.6875 12.617187-31.6875 31.128906v40.824219h63.476563l-8.273437 64.097656h-55.203126v189.453125c107.003907-30.675781 185.335938-129.257813 185.335938-246.109375zm0 0"
     id="path20" />
  <path
     d="m272.914062 511.429688c-2.664062.171874-5.339843.308593-8.023437.398437 2.683594-.089844 5.359375-.226563 8.023437-.398437zm0 0"
     id="path22" />
  <path
     d="m264.753906 511.835938c-1.414062.046874-2.832031.082031-4.25.105468 1.417969-.023437 2.835938-.058594 4.25-.105468zm0 0"
     id="path24" />
  <path
     style="fill:#ffffff;stroke-width:2.89265537"
     d="M 323.68814,680.74221 C 200.93499,673.25943 92.223997,601.93445 37.839545,493.19774 -63.406922,290.76474 56.536428,50.412263 280.43636,7.0620264 331.98427,-2.9183905 408.48164,3.4218745 457.04042,21.699348 661.59393,98.693085 743.58998,338.31476 628.4056,522.48955 590.24398,583.50832 526.89032,634.67589 456.86712,661.03256 l -18.9191,7.12111 V 543.79436 419.43503 h 36.15819 c 19.88701,0 36.1582,-0.50928 36.1582,-1.13175 0,-0.62247 2.59404,-20.47332 5.76457,-44.113 3.17052,-23.63967 5.77391,-43.30666 5.78531,-43.7044 0.0114,-0.39774 -18.85384,-0.72317 -41.92276,-0.72317 h -41.94351 v -34.57576 c 0,-19.69475 1.41746,-37.68675 3.29346,-41.80409 5.54146,-12.16219 18.67207,-16.18512 52.82733,-16.18512 h 30.65887 v -38.85592 c 0,-35.29357 -0.4916,-39.01195 -5.36226,-40.55783 -2.94923,-0.93605 -23.45093,-1.91003 -45.55932,-2.1644 -32.2026,-0.3705 -43.36119,0.59389 -56.10666,4.8491 -29.18562,9.74393 -46.34257,24.10345 -58.84307,49.24882 -9.86161,19.83715 -13.47332,42.46657 -13.47332,84.41827 v 35.62693 h -36.15819 -36.15819 v 44.83616 44.83616 h 36.15819 36.15819 v 131.61582 c 0,103.64231 -0.76849,131.505 -3.61582,131.09442 -1.9887,-0.28667 -10.12429,-0.91813 -18.07909,-1.40306 z"
     id="path34"
     inkscape:connector-curvature="0"
     transform="scale(0.74999998)" />
</svg>
