<?xml version="1.0" encoding="UTF-8" standalone="no"?>
<svg
   xmlns:dc="http://purl.org/dc/elements/1.1/"
   xmlns:cc="http://creativecommons.org/ns#"
   xmlns:rdf="http://www.w3.org/1999/02/22-rdf-syntax-ns#"
   xmlns:svg="http://www.w3.org/2000/svg"
   xmlns="http://www.w3.org/2000/svg"
   xmlns:sodipodi="http://sodipodi.sourceforge.net/DTD/sodipodi-0.dtd"
   xmlns:inkscape="http://www.inkscape.org/namespaces/inkscape"
   id="Capa_1"
   enable-background="new 0 0 524.235 524.235"
   height="512"
   viewBox="0 0 524.235 524.235"
   width="512"
   version="1.1"
   sodipodi:docname="info.svg"
   inkscape:version="0.92.4 (5da689c313, 2019-01-14)">
  <metadata
     id="metadata9">
    <rdf:RDF>
      <cc:Work
         rdf:about="">
        <dc:format>image/svg+xml</dc:format>
        <dc:type
           rdf:resource="http://purl.org/dc/dcmitype/StillImage" />
      </cc:Work>
    </rdf:RDF>
  </metadata>
  <defs
     id="defs7" />
  <sodipodi:namedview
     pagecolor="#ffffff"
     bordercolor="#666666"
     borderopacity="1"
     objecttolerance="10"
     gridtolerance="10"
     guidetolerance="10"
     inkscape:pageopacity="0"
     inkscape:pageshadow="2"
     inkscape:window-width="1366"
     inkscape:window-height="717"
     id="namedview5"
     showgrid="false"
     inkscape:zoom="0.4609375"
     inkscape:cx="256"
     inkscape:cy="256"
     inkscape:window-x="0"
     inkscape:window-y="27"
     inkscape:window-maximized="1"
     inkscape:current-layer="Capa_1" />
  <path
     d="m262.118 0c-144.53 0-262.118 117.588-262.118 262.118s117.588 262.118 262.118 262.118 262.118-117.588 262.118-262.118-117.589-262.118-262.118-262.118zm17.05 417.639c-12.453 2.076-37.232 7.261-49.815 8.303-10.651.882-20.702-5.215-26.829-13.967-6.143-8.751-7.615-19.95-3.968-29.997l49.547-136.242h-51.515c-.044-28.389 21.25-49.263 48.485-57.274 12.997-3.824 37.212-9.057 49.809-8.255 7.547.48 20.702 5.215 26.829 13.967 6.143 8.751 7.615 19.95 3.968 29.997l-49.547 136.242h51.499c.01 28.356-20.49 52.564-48.463 57.226zm15.714-253.815c-18.096 0-32.765-14.671-32.765-32.765 0-18.096 14.669-32.765 32.765-32.765s32.765 14.669 32.765 32.765c0 18.095-14.668 32.765-32.765 32.765z"
     id="path2" />
  <path
     style="fill:#000000;stroke-width:2.16949153"
     d="m 207.61719,410.12172 c -8.67817,-5.29139 -13.66465,-14.68735 -13.66465,-25.74814 0,-5.43713 8.95311,-33.14687 24.74399,-76.58232 l 24.744,-68.06245 -24.744,-0.61122 -24.74399,-0.61122 v -5.42456 c 0,-13.93033 14.54367,-33.48696 31.02421,-41.71774 13.77224,-6.87819 41.25219,-13.46576 56.17217,-13.46576 15.02466,0 25.35641,3.81925 31.51641,11.65043 9.78273,12.43672 9.19023,15.43156 -17.7509,89.72305 -13.76633,37.96133 -25.02968,70.22091 -25.02968,71.68796 0,1.9552 6.64681,2.66737 24.89491,2.66737 h 24.89492 l -1.34616,7.05085 c -3.41937,17.9098 -16.95994,35.51787 -32.23718,41.92099 -9.09548,3.81219 -51.34226,11.77568 -62.41832,11.76581 -5.20431,-0.004 -12.08802,-1.82379 -16.05573,-4.24305 z"
     id="path11"
     inkscape:connector-curvature="0"
     transform="scale(1.0238965)" />
  <path
     style="fill:#000000;stroke-width:2.16949153"
     d=""
     id="path13"
     inkscape:connector-curvature="0"
     transform="scale(1.0238965)" />
  <path
     style="fill:#000000;stroke-width:2.16949153"
     d="m 271.8327,153.44828 c -19.48221,-13.01495 -19.0305,-39.43635 0.88179,-51.57764 16.11289,-9.824656 35.9652,-2.599468 43.62224,15.87618 4.21944,10.18107 4.21944,10.32529 0,20.50636 -7.88878,19.03481 -28.31609,26.00935 -44.50403,15.1951 z"
     id="path15"
     inkscape:connector-curvature="0"
     transform="scale(1.0238965)" />
  <path
     style="fill:#ffffff;stroke-width:2.16949153"
     d="M 233.00339,509.4664 C 171.71827,504.71921 107.85209,472.78412 66.871971,426.39547 15.569825,368.32252 -7.1832025,293.30482 4.0017156,219.10962 12.207699,164.6752 36.548497,116.41685 75.715254,76.929532 112.82816,39.512878 158.28437,15.286354 210.04526,5.3364886 236.02727,0.34202945 278.89766,0.82924605 306.38794,6.4314114 425.15313,30.634216 510.68086,135.11671 510.68086,256 c 0,135.18687 -106.7845,247.45134 -241.88086,254.29372 -8.35254,0.42305 -24.46102,0.0508 -35.79661,-0.82732 z m 21.54939,-97.33163 c 28.83614,-5.1924 37.75689,-8.56333 47.47509,-17.93964 10.45341,-10.08568 15.58473,-19.38254 17.54604,-31.7896 l 1.73063,-10.9479 H 296.6794 c -13.54386,0 -24.62516,-0.62299 -24.62516,-1.38442 0,-0.76145 10.88382,-31.26992 24.18625,-67.79661 25.81994,-70.89812 27.84865,-80.22005 19.80323,-90.99603 -7.59539,-10.1732 -15.08567,-14.13948 -28.54016,-15.11269 -15.76887,-1.14061 -45.01645,4.53478 -60.07049,11.65648 -20.30929,9.60783 -35.48923,29.19476 -35.60237,45.93835 l -0.0477,7.05085 h 23.86441 c 13.12542,0 23.8644,0.87365 23.8644,1.94143 0,1.06778 -10.73898,31.43483 -23.8644,67.4823 -16.03325,44.03347 -23.86175,68.49171 -23.8563,74.53314 0.0152,16.76036 14.41852,31.74699 30.52772,31.76383 4.2659,0.004 18.77114,-1.9753 32.2339,-4.39949 z M 304.61867,155.66102 C 316.32328,147.69493 320.2837,140.70169 320.2837,128 c 0,-33.858334 -44.83549,-45.064674 -60.64998,-15.15906 -6.21869,11.75976 -6.21869,18.55836 0,30.31812 8.85433,16.74375 30.08367,22.64369 44.98495,12.50196 z"
     id="path10"
     inkscape:connector-curvature="0"
     transform="scale(1.0238965)" />
  <path
     style="fill:#ffff00;stroke-width:2.16949153"
     d="M 224.32542,507.55977 C 185.40366,502.73859 136.88456,482.89718 103.62546,458.20069 61.595208,426.99116 27.764291,377.9372 12.903711,326.65646 5.1768257,299.99258 3.0724827,284.73873 3.0536769,255.25604 2.9590129,106.84806 133.29572,-11.180513 280.33783,4.1567672 c 89.69218,9.3553748 164.6246,61.7485058 203.4938,142.2839128 20.11248,41.67226 27.83366,83.47325 24.27828,131.43808 -7.85404,105.95723 -87.78527,198.70609 -193.46495,224.48863 -25.1916,6.14598 -64.41639,8.40097 -90.31954,5.19238 z M 252.787,413.35248 c 30.29138,-5.31425 40.41893,-9.1684 50.42838,-19.19106 10.21015,-10.22362 15.44264,-20.10136 17.56316,-33.15519 l 1.44447,-8.89207 -23.37466,-1.5112 c -12.85608,-0.83116 -23.69719,-1.83372 -24.09136,-2.2279 -0.39418,-0.39415 9.14736,-28.41778 21.20337,-62.27467 12.05604,-33.85691 22.20019,-64.5847 22.54256,-68.28398 0.34237,-3.69929 1.35051,-7.90393 2.2403,-9.34365 4.28356,-6.93094 -5.50269,-23.77868 -16.97414,-29.22224 -14.93363,-7.08647 -55.40536,-2.56907 -77.73644,8.67685 -20.84748,10.49877 -34.24959,27.93819 -34.24959,44.56706 v 7.66689 l 22.09351,1.44788 c 12.15144,0.79633 22.51477,1.86915 23.02966,2.38403 0.51488,0.51489 -8.57492,27.58975 -20.19957,60.16638 -11.62465,32.57663 -21.2558,61.91273 -21.40255,65.19138 -0.14674,3.27864 -1.11991,5.96339 -2.16258,5.9661 -1.04267,0.002 -1.43746,5.53157 -0.8773,12.28635 0.91307,11.01041 1.94251,13.14332 9.94736,20.61017 8.07381,7.53117 10.05239,8.32876 20.66091,8.32876 6.45261,0 19.91416,-1.43544 29.91451,-3.18989 z m 52.95619,-257.1873 c 10.51875,-6.50095 14.92577,-14.51685 14.88839,-27.08043 -0.0618,-20.76669 -12.59969,-33.627123 -32.78377,-33.627123 -32.77505,0 -45.19324,41.617113 -17.96417,60.203393 9.39687,6.4142 25.921,6.64652 35.85955,0.50416 z"
     id="path12"
     inkscape:connector-curvature="0"
     transform="scale(1.0238965)" />
</svg>
