<?xml version="1.0" encoding="UTF-8" standalone="no"?>
<!-- Generator: Adobe Illustrator 19.0.0, SVG Export Plug-In . SVG Version: 6.00 Build 0)  -->

<svg
   xmlns:dc="http://purl.org/dc/elements/1.1/"
   xmlns:cc="http://creativecommons.org/ns#"
   xmlns:rdf="http://www.w3.org/1999/02/22-rdf-syntax-ns#"
   xmlns:svg="http://www.w3.org/2000/svg"
   xmlns="http://www.w3.org/2000/svg"
   xmlns:sodipodi="http://sodipodi.sourceforge.net/DTD/sodipodi-0.dtd"
   xmlns:inkscape="http://www.inkscape.org/namespaces/inkscape"
   version="1.1"
   id="Capa_1"
   x="0px"
   y="0px"
   viewBox="0 0 512 512"
   style="enable-background:new 0 0 512 512;"
   xml:space="preserve"
   sodipodi:docname="instagram.svg"
   inkscape:version="0.92.4 (5da689c313, 2019-01-14)"><metadata
   id="metadata55"><rdf:RDF><cc:Work
       rdf:about=""><dc:format>image/svg+xml</dc:format><dc:type
         rdf:resource="http://purl.org/dc/dcmitype/StillImage" /></cc:Work></rdf:RDF></metadata><defs
   id="defs53" /><sodipodi:namedview
   pagecolor="#ffffff"
   bordercolor="#666666"
   borderopacity="1"
   objecttolerance="10"
   gridtolerance="10"
   guidetolerance="10"
   inkscape:pageopacity="0"
   inkscape:pageshadow="2"
   inkscape:window-width="1366"
   inkscape:window-height="717"
   id="namedview51"
   showgrid="false"
   inkscape:zoom="0.4609375"
   inkscape:cx="256"
   inkscape:cy="256"
   inkscape:window-x="0"
   inkscape:window-y="27"
   inkscape:window-maximized="1"
   inkscape:current-layer="Capa_1" />
<g
   id="g6">
	<g
   id="g4">
		<path
   d="M352,0H160C71.648,0,0,71.648,0,160v192c0,88.352,71.648,160,160,160h192c88.352,0,160-71.648,160-160V160    C512,71.648,440.352,0,352,0z M464,352c0,61.76-50.24,112-112,112H160c-61.76,0-112-50.24-112-112V160C48,98.24,98.24,48,160,48    h192c61.76,0,112,50.24,112,112V352z"
   id="path2" />
	</g>
</g>
<g
   id="g12">
	<g
   id="g10">
		<path
   d="M256,128c-70.688,0-128,57.312-128,128s57.312,128,128,128s128-57.312,128-128S326.688,128,256,128z M256,336    c-44.096,0-80-35.904-80-80c0-44.128,35.904-80,80-80s80,35.872,80,80C336,300.096,300.096,336,256,336z"
   id="path8" />
	</g>
</g>
<g
   id="g18">
	<g
   id="g16">
		<circle
   cx="393.6"
   cy="118.4"
   r="17.056"
   id="circle14" />
	</g>
</g>
<g
   id="g20">
</g>
<g
   id="g22">
</g>
<g
   id="g24">
</g>
<g
   id="g26">
</g>
<g
   id="g28">
</g>
<g
   id="g30">
</g>
<g
   id="g32">
</g>
<g
   id="g34">
</g>
<g
   id="g36">
</g>
<g
   id="g38">
</g>
<g
   id="g40">
</g>
<g
   id="g42">
</g>
<g
   id="g44">
</g>
<g
   id="g46">
</g>
<g
   id="g48">
</g>
<path
   style="fill:#ffffff;stroke-width:2.16949153"
   d="M 142.5711,509.86361 C 78.7146,502.76172 27.035891,458.90766 7.0331945,394.84746 1.9572584,378.59137 1.9525424,378.46248 1.9525424,256 c 0,-122.46249 0.00472,-122.59138 5.0806521,-138.84746 C 21.241808,71.648343 50.320666,37.0242 90.901695,17.290468 124.25125,1.0732553 124.11668,1.0864805 255.78305,1.0864805 c 133.24112,0 131.57914,-0.17574401 167.86972,17.7513865 36.4004,17.981383 65.42651,51.739799 79.86936,92.890943 l 6.09143,17.35594 V 256 382.91525 l -6.09143,17.35594 c -15.42539,43.95062 -46.18062,78.10245 -87.00399,96.61264 -29.47126,13.36292 -31.12155,13.51862 -149.88763,14.14289 -59.66102,0.3136 -115.48775,-0.20979 -124.05941,-1.16311 z m 240.63589,-49.61772 c 38.1832,-10.58788 69.29258,-43.51987 78.66567,-83.27446 4.70025,-19.93539 4.70025,-222.00748 0,-241.94286 C 452.49957,95.273984 421.39019,62.341996 383.20699,51.75411 369.91833,48.069278 359.14466,47.730992 255.83,47.754563 133.3569,47.782506 131.80842,47.911116 107.49138,60.074884 90.36158,68.643486 68.271987,91.052012 59.780549,108.47458 47.210479,134.2656 46.502459,142.13201 46.502459,256 c 0,113.868 0.70802,121.7344 13.27809,147.52542 8.513211,17.46723 30.592335,39.83647 47.833021,48.46152 23.64834,11.83063 24.26232,11.88107 147.13168,12.09025 104.68294,0.17812 115.12526,-0.13321 128.46174,-3.8313 z"
   id="path57"
   inkscape:connector-curvature="0" /><path
   style="fill:#ffffff;stroke-width:2.16949153"
   d="m 231.91864,331.08286 c -34.2754,-10.77708 -58.58744,-48.04322 -54.42849,-83.42943 3.00356,-25.55561 20.51833,-50.39715 43.8594,-62.20665 17.26799,-8.73681 43.8977,-10.12191 62.16954,-3.23366 17.47544,6.58802 35.91482,24.0462 44.06203,41.7174 5.3699,11.64726 6.28348,16.30996 6.28348,32.06948 0,15.75952 -0.91358,20.42222 -6.28348,32.06948 -8.06287,17.48827 -26.62129,35.15635 -43.60104,41.50929 -13.89777,5.19982 -38.08511,5.89861 -52.06144,1.50409 z"
   id="path59"
   inkscape:connector-curvature="0" /><path
   style="fill:#ffffff;stroke-width:2.16949153"
   d="m 241.68136,381.78909 c -43.59523,-5.3773 -80.57272,-31.70187 -99.73462,-71.00181 -30.35619,-62.25878 -4.45992,-136.77414 58.64647,-168.75257 23.99401,-12.15869 62.77146,-15.9363 88.19943,-8.59219 67.78848,19.57869 107.72073,88.85529 89.4274,155.14346 -16.7143,60.56632 -75.5469,100.72624 -136.53868,93.20311 z m 48.24035,-52.5504 c 14.86493,-6.82837 31.45035,-22.76632 38.18278,-36.69218 19.75595,-40.86467 3.7792,-88.99402 -36.05104,-108.60238 -13.4535,-6.62314 -16.03137,-7.13057 -36.22478,-7.13057 -19.6304,0 -22.99249,0.6147 -34.6393,6.3332 -23.86495,11.71752 -39.34666,32.29109 -44.67337,59.36622 -7.48979,38.06991 16.85991,78.32771 54.86813,90.71446 14.95914,4.87512 43.4708,2.93234 58.53758,-3.98875 z"
   id="path61"
   inkscape:connector-curvature="0" /><path
   style="fill:#ffffff;stroke-width:2.16949153"
   d="m 384.07563,130.01203 c -7.90537,-6.21836 -7.90537,-17.33112 0,-23.54948 3.14396,-2.47305 7.40552,-4.49645 9.47013,-4.49645 7.27654,0 15.18644,8.4749 15.18644,16.27119 0,7.79629 -7.9099,16.27118 -15.18644,16.27118 -2.06461,0 -6.32617,-2.0234 -9.47013,-4.49644 z"
   id="path63"
   inkscape:connector-curvature="0" /><path
   style="fill:#000000;stroke-width:2.16949153"
   d="m 229.09494,378.66249 c -46.57501,-10.60732 -84.7419,-48.95951 -95.87649,-96.34196 -3.85216,-16.39258 -1.81768,-49.99366 4.01487,-66.30893 23.29245,-65.15549 93.32791,-100.21875 158.01374,-79.10958 38.04334,12.41482 71.73894,48.48977 81.96592,87.75382 4.26067,16.35785 4.24754,46.38086 -0.0276,62.79373 -7.30993,28.0647 -28.4401,56.98652 -54.06397,73.99982 -25.47628,16.91531 -64.20414,24.00506 -94.0266,17.2131 z m 24.21655,-44.51552 c -24.49113,-1.81631 -39.1945,-8.3751 -53.81477,-24.00536 C 183.75316,293.31048 177.7753,278.41039 177.7753,256 c 0,-15.40578 0.94917,-20.48229 5.76739,-30.84597 7.61531,-16.38007 23.25581,-32.76926 38.34306,-40.17848 10.85473,-5.33068 14.59841,-5.9925 33.8973,-5.9925 19.18753,0 23.07567,0.67813 33.64171,5.86744 16.21981,7.96607 29.62497,21.68788 37.71619,38.60714 5.91046,12.35913 6.7438,16.38043 6.7438,32.54237 0,16.24048 -0.81378,20.12318 -6.82054,32.54237 -9.86218,20.39039 -23.74094,33.56264 -43.49532,41.28115 -5.73645,2.24137 -8.47736,4.09945 -6.09092,4.12905 12.13007,0.15049 37.37919,-18.21899 47.89804,-34.84725 20.10797,-31.78676 13.79061,-76.43814 -14.52336,-102.65187 -17.86824,-16.54285 -31.50031,-21.3021 -58.32384,-20.36213 -25.30889,0.8869 -36.75937,5.8095 -54.42684,23.3983 -16.6093,16.53536 -22.36944,31.29434 -22.49605,57.64074 -0.0857,17.82536 0.53953,20.85804 7.0091,33.99962 8.67325,17.61786 26.09211,34.32597 42.26788,40.5432 8.4367,3.24268 16.13785,4.31669 29.81541,4.15808 l 18.44067,-0.21384 z"
   id="path34"
   inkscape:connector-curvature="0" /><path
   style="fill:#ffffff;stroke-width:2.16949153"
   d="m 222.15593,375.71092 c -21.90091,-7.35582 -35.48781,-15.86498 -52.55979,-32.91696 -13.41535,-13.39963 -18.61142,-20.59538 -26.01768,-36.03043 -8.78039,-18.29882 -9.29418,-20.45442 -10.02901,-42.07607 -1.46756,-43.18188 7.04338,-65.89677 35.43599,-94.57525 19.06321,-19.25515 34.97348,-28.51874 59.67748,-34.74659 19.2375,-4.84976 50.47878,-3.23364 68.34047,3.53527 35.47462,13.44355 66.48259,45.5375 77.04897,79.74742 6.40449,20.73536 6.00014,57.24512 -0.84888,76.64709 -6.58788,18.66218 -17.51452,34.88869 -34.43346,51.13511 -23.07772,22.16035 -45.14845,31.00073 -80.81748,32.37117 -19.2257,0.73867 -26.18376,0.13789 -35.79661,-3.09076 z m 30.12065,-42.73395 c -25.73681,-3.51233 -38.8964,-9.81159 -52.91935,-25.33154 C 183.5042,290.10003 179.90089,280.54867 179.87369,256 c -0.0191,-17.22933 0.8063,-22.2937 5.03172,-30.87326 7.71431,-15.66361 22.68756,-30.93079 37.68566,-38.42543 11.88488,-5.93894 15.33979,-6.63333 32.99612,-6.6318 17.19652,0.001 21.38774,0.7941 32.73823,6.19117 15.12647,7.19251 30.29647,22.44825 38.06656,38.28169 4.51658,9.20363 5.32327,13.97073 5.32327,31.45763 0,18.37997 -0.672,21.93618 -6.21023,32.86439 -7.74176,15.27628 -22.68368,30.09909 -38.26434,37.95929 -8.0407,4.05642 -10.67739,6.2799 -8.08468,6.8177 11.52383,2.39035 40.01056,-20.61177 50.71903,-40.95397 5.70671,-10.84068 6.17921,-13.56307 6.17921,-35.60266 0,-22.20714 -0.45199,-24.75896 -6.50848,-36.74585 -7.76929,-15.37681 -23.67726,-31.67697 -37.61632,-38.54368 -7.93613,-3.90953 -14.63185,-5.14111 -31.11174,-5.72254 -29.99318,-1.0582 -41.23298,2.62999 -59.18096,19.41944 -19.25207,18.00938 -25.02602,30.31538 -26.5206,56.52339 -1.3682,23.99165 2.73434,37.78024 16.09362,54.09056 18.62985,22.74513 33.60369,29.89296 62.4038,29.7887 l 19.52542,-0.0707 z"
   id="path35"
   inkscape:connector-curvature="0" /></svg>