<?xml version="1.0" encoding="UTF-8" standalone="no"?>
<svg
   xmlns:dc="http://purl.org/dc/elements/1.1/"
   xmlns:cc="http://creativecommons.org/ns#"
   xmlns:rdf="http://www.w3.org/1999/02/22-rdf-syntax-ns#"
   xmlns:svg="http://www.w3.org/2000/svg"
   xmlns="http://www.w3.org/2000/svg"
   xmlns:sodipodi="http://sodipodi.sourceforge.net/DTD/sodipodi-0.dtd"
   xmlns:inkscape="http://www.inkscape.org/namespaces/inkscape"
   id="Capa_1"
   enable-background="new 0 0 551.13 551.13"
   height="512"
   viewBox="0 0 551.13 551.13"
   width="512"
   version="1.1"
   sodipodi:docname="magnifying-glass.svg"
   inkscape:version="0.92.4 (5da689c313, 2019-01-14)">
  <metadata
     id="metadata9">
    <rdf:RDF>
      <cc:Work
         rdf:about="">
        <dc:format>image/svg+xml</dc:format>
        <dc:type
           rdf:resource="http://purl.org/dc/dcmitype/StillImage" />
      </cc:Work>
    </rdf:RDF>
  </metadata>
  <defs
     id="defs7" />
  <sodipodi:namedview
     pagecolor="#ffffff"
     bordercolor="#666666"
     borderopacity="1"
     objecttolerance="10"
     gridtolerance="10"
     guidetolerance="10"
     inkscape:pageopacity="0"
     inkscape:pageshadow="2"
     inkscape:window-width="1366"
     inkscape:window-height="717"
     id="namedview5"
     showgrid="false"
     inkscape:zoom="0.4609375"
     inkscape:cx="256"
     inkscape:cy="256"
     inkscape:window-x="0"
     inkscape:window-y="27"
     inkscape:window-maximized="1"
     inkscape:current-layer="Capa_1" />
  <path
     d="m551.13 526.776-186.785-186.785c30.506-36.023 49.003-82.523 49.003-133.317 0-113.967-92.708-206.674-206.674-206.674s-206.674 92.707-206.674 206.674 92.707 206.674 206.674 206.674c50.794 0 97.294-18.497 133.317-49.003l186.785 186.785s24.354-24.354 24.354-24.354zm-344.456-147.874c-94.961 0-172.228-77.267-172.228-172.228s77.267-172.228 172.228-172.228 172.228 77.267 172.228 172.228-77.267 172.228-172.228 172.228z"
     id="path2" />
  <path
     style="fill:#e3dedb;stroke-width:2.16949153"
     d="M 402.05648,423.97516 316.20113,338.11981 298.239,350.14255 c -19.81596,13.26357 -45.11991,23.9186 -68.45401,28.82471 -19.46367,4.09231 -56.40224,4.073 -76.09334,-0.0397 C 90.813685,365.79445 37.240563,320.10811 13.735458,259.57491 -7.2283412,205.58643 -1.6260913,145.08662 29.190576,92.672063 41.544611,71.659687 72.670414,41.0827 95.275978,27.751888 153.81467,-6.7691811 229.69112,-6.9707234 287.9877,27.240008 c 19.90092,11.678644 48.21142,37.873954 60.55164,56.027609 11.409,16.783733 24.02646,44.273813 28.99531,63.173063 5.58833,21.25546 5.58833,69.86318 0,91.11864 -5.25667,19.99404 -18.43202,48.09991 -30.42963,64.91308 l -9.6507,13.52422 86.59007,86.56976 86.59005,86.56976 -10.1916,10.3472 c -5.60538,5.69094 -10.71796,10.34717 -11.36131,10.34717 -0.64334,0 -39.80461,-38.63491 -87.02505,-85.85535 z M 230.24809,348.15729 c 52.34664,-12.10516 96.23637,-52.71535 114.84004,-106.25898 5.55468,-15.98705 6.0303,-19.9226 6.0303,-49.89831 0,-29.97572 -0.47562,-33.91126 -6.0303,-49.89831 C 326.34448,88.155173 283.32177,48.56509 229.16335,35.426104 209.78814,30.725625 173.59729,30.7789 153.81695,35.537011 120.62914,43.52026 85.252428,66.630179 65.02211,93.54245 c -21.368686,28.42663 -31.419932,56.01392 -33.105826,90.86433 -2.254395,46.60228 13.103896,86.81207 45.968462,120.35076 39.684844,40.49886 95.794374,56.4813 152.363344,43.39975 z"
     id="path17"
     inkscape:connector-curvature="0"
     transform="scale(1.0764258)" />
</svg>
