<?xml version="1.0" encoding="UTF-8" standalone="no"?>
<!-- Generator: Adobe Illustrator 19.0.0, SVG Export Plug-In . SVG Version: 6.00 Build 0)  -->

<svg
   xmlns:dc="http://purl.org/dc/elements/1.1/"
   xmlns:cc="http://creativecommons.org/ns#"
   xmlns:rdf="http://www.w3.org/1999/02/22-rdf-syntax-ns#"
   xmlns:svg="http://www.w3.org/2000/svg"
   xmlns="http://www.w3.org/2000/svg"
   xmlns:sodipodi="http://sodipodi.sourceforge.net/DTD/sodipodi-0.dtd"
   xmlns:inkscape="http://www.inkscape.org/namespaces/inkscape"
   version="1.1"
   id="Capa_1"
   x="0px"
   y="0px"
   viewBox="0 0 512 512"
   style="enable-background:new 0 0 512 512;"
   xml:space="preserve"
   sodipodi:docname="mail.svg"
   inkscape:version="0.92.4 (5da689c313, 2019-01-14)"><metadata
   id="metadata61"><rdf:RDF><cc:Work
       rdf:about=""><dc:format>image/svg+xml</dc:format><dc:type
         rdf:resource="http://purl.org/dc/dcmitype/StillImage" /></cc:Work></rdf:RDF></metadata><defs
   id="defs59" /><sodipodi:namedview
   pagecolor="#ffffff"
   bordercolor="#666666"
   borderopacity="1"
   objecttolerance="10"
   gridtolerance="10"
   guidetolerance="10"
   inkscape:pageopacity="0"
   inkscape:pageshadow="2"
   inkscape:window-width="1366"
   inkscape:window-height="717"
   id="namedview57"
   showgrid="false"
   inkscape:zoom="0.4609375"
   inkscape:cx="256"
   inkscape:cy="256"
   inkscape:window-x="0"
   inkscape:window-y="27"
   inkscape:window-maximized="1"
   inkscape:current-layer="Capa_1" />
<g
   id="g6">
	<g
   id="g4">
		<path
   d="M467,61H45c-6.927,0-13.412,1.703-19.279,4.51L255,294.789l51.389-49.387c0,0,0.004-0.005,0.005-0.007    c0.001-0.002,0.005-0.004,0.005-0.004L486.286,65.514C480.418,62.705,473.929,61,467,61z"
   id="path2" />
	</g>
</g>
<g
   id="g12">
	<g
   id="g10">
		<path
   d="M507.496,86.728L338.213,256.002L507.49,425.279c2.807-5.867,4.51-12.352,4.51-19.279V106    C512,99.077,510.301,92.593,507.496,86.728z"
   id="path8" />
	</g>
</g>
<g
   id="g18">
	<g
   id="g16">
		<path
   d="M4.51,86.721C1.703,92.588,0,99.073,0,106v300c0,6.923,1.701,13.409,4.506,19.274L173.789,256L4.51,86.721z"
   id="path14" />
	</g>
</g>
<g
   id="g24">
	<g
   id="g22">
		<path
   d="M317.002,277.213l-51.396,49.393c-2.93,2.93-6.768,4.395-10.605,4.395s-7.676-1.465-10.605-4.395L195,277.211    L25.714,446.486C31.582,449.295,38.071,451,45,451h422c6.927,0,13.412-1.703,19.279-4.51L317.002,277.213z"
   id="path20" />
	</g>
</g>
<g
   id="g26">
</g>
<g
   id="g28">
</g>
<g
   id="g30">
</g>
<g
   id="g32">
</g>
<g
   id="g34">
</g>
<g
   id="g36">
</g>
<g
   id="g38">
</g>
<g
   id="g40">
</g>
<g
   id="g42">
</g>
<g
   id="g44">
</g>
<g
   id="g46">
</g>
<g
   id="g48">
</g>
<g
   id="g50">
</g>
<g
   id="g52">
</g>
<g
   id="g54">
</g>
<path
   style="fill:#800000;stroke-width:2.16949153"
   d="M 140.02662,179.29446 C 38.528034,77.782062 26.997816,65.562307 31.559797,64.341037 c 7.651077,-2.04824 447.236633,-1.641179 450.481023,0.41715 1.97011,1.2499 -31.01115,35.323503 -111.26474,114.949833 -62.73568,62.24533 -114.76532,113.17334 -115.62144,113.17334 -0.85613,0 -52.66373,-51.11411 -115.12802,-113.5869 z"
   id="path63"
   inkscape:connector-curvature="0" /><path
   style="fill:#800000;stroke-width:2.16949153"
   d="M 1.9606428,413.83051 C 0.04579775,403.22677 1.6866792,93.913972 3.6682841,91.933229 4.611942,90.989982 42.683312,127.51752 88.271327,173.10554 l 82.887303,82.8873 -82.422847,82.44426 c -45.332567,45.34435 -83.1156302,82.44426 -83.9623647,82.44426 -0.8467347,0 -2.1124836,-3.17289 -2.8127755,-7.05085 z"
   id="path65"
   inkscape:connector-curvature="0" /><path
   style="fill:#800000;stroke-width:2.16949153"
   d="m 30.711502,447.28138 c -3.000779,-1.18843 13.474272,-18.75171 79.643858,-84.90455 l 83.42727,-83.40616 27.00807,26.48077 c 34.73616,34.05796 33.30954,33.91036 61.87252,6.40161 11.46674,-11.04353 24.05047,-22.96916 27.9638,-26.5014 l 7.11517,-6.42226 83.38848,83.3674 c 55.62121,55.60713 82.50967,83.92584 80.74926,85.04446 -3.26504,2.0747 -445.927003,2.01596 -451.168428,-0.0599 z"
   id="path67"
   inkscape:connector-curvature="0" /><path
   style="fill:#800000;stroke-width:2.16949153"
   d="M 423.90545,339.51223 340.41435,256 l 83.4911,-83.51223 c 66.21957,-66.23633 83.80107,-82.729561 84.98949,-79.72881 1.95782,4.943429 1.95782,321.53864 0,326.48209 -1.18842,3.00075 -18.76992,-13.49248 -84.98949,-79.72882 z"
   id="path69"
   inkscape:connector-curvature="0" /></svg>