<?xml version="1.0" encoding="iso-8859-1"?>
<!-- Generator: Adobe Illustrator 19.0.0, SVG Export Plug-In . SVG Version: 6.00 Build 0)  -->
<svg version="1.1" id="Capa_1" xmlns="http://www.w3.org/2000/svg" xmlns:xlink="http://www.w3.org/1999/xlink" x="0px" y="0px"
	 viewBox="0 0 512 512" style="enable-background:new 0 0 512 512;" xml:space="preserve">
<g>
	<g>
		<path d="M480,80H32C14.368,80,0,94.368,0,112v288c0,17.664,14.368,32,32,32h448c17.664,0,32-14.336,32-32V112
			C512,94.368,497.664,80,480,80z M176.224,157.376C177.504,149.664,184.16,144,192,144h71.488c13.76,0,26.88,5.92,36,16.224
			c9.12,10.336,13.344,24.064,11.648,37.728C308.128,221.92,287.648,240,263.488,240H224c-7.84,0-14.496,5.664-15.776,13.376
			L194.464,336h-48L176.224,157.376z M374.496,250.656C369.344,281.568,342.784,304,311.36,304h-41.824l-13.76,82.624
			C254.496,394.336,247.84,400,240,400h-48c-4.704,0-9.184-2.048-12.224-5.696c-3.04-3.584-4.352-8.352-3.552-12.992L178.496,368
			H208c7.84,0,14.496-5.664,15.776-13.376L237.536,272h25.952c40.256,0,74.368-30.112,79.36-70.08
			c0.704-5.632,0.8-11.296,0.288-16.864C365.856,197.92,379.04,223.712,374.496,250.656z"/>
	</g>
</g>
<g>
</g>
<g>
</g>
<g>
</g>
<g>
</g>
<g>
</g>
<g>
</g>
<g>
</g>
<g>
</g>
<g>
</g>
<g>
</g>
<g>
</g>
<g>
</g>
<g>
</g>
<g>
</g>
<g>
</g>
</svg>
