<?xml version="1.0" encoding="UTF-8" standalone="no"?>
<!-- Generator: Adobe Illustrator 19.0.0, SVG Export Plug-In . SVG Version: 6.00 Build 0)  -->

<svg
   xmlns:dc="http://purl.org/dc/elements/1.1/"
   xmlns:cc="http://creativecommons.org/ns#"
   xmlns:rdf="http://www.w3.org/1999/02/22-rdf-syntax-ns#"
   xmlns:svg="http://www.w3.org/2000/svg"
   xmlns="http://www.w3.org/2000/svg"
   xmlns:sodipodi="http://sodipodi.sourceforge.net/DTD/sodipodi-0.dtd"
   xmlns:inkscape="http://www.inkscape.org/namespaces/inkscape"
   version="1.1"
   id="Capa_1"
   x="0px"
   y="0px"
   viewBox="0 0 384 384"
   style="enable-background:new 0 0 384 384;"
   xml:space="preserve"
   sodipodi:docname="phone.svg"
   inkscape:version="0.92.4 (5da689c313, 2019-01-14)"><metadata
   id="metadata43"><rdf:RDF><cc:Work
       rdf:about=""><dc:format>image/svg+xml</dc:format><dc:type
         rdf:resource="http://purl.org/dc/dcmitype/StillImage" /></cc:Work></rdf:RDF></metadata><defs
   id="defs41" /><sodipodi:namedview
   pagecolor="#ffffff"
   bordercolor="#666666"
   borderopacity="1"
   objecttolerance="10"
   gridtolerance="10"
   guidetolerance="10"
   inkscape:pageopacity="0"
   inkscape:pageshadow="2"
   inkscape:window-width="1366"
   inkscape:window-height="717"
   id="namedview39"
   showgrid="false"
   inkscape:zoom="0.61458333"
   inkscape:cx="192"
   inkscape:cy="192"
   inkscape:window-x="0"
   inkscape:window-y="27"
   inkscape:window-maximized="1"
   inkscape:current-layer="Capa_1" />
<g
   id="g6">
	<g
   id="g4">
		<path
   d="M353.188,252.052c-23.51,0-46.594-3.677-68.469-10.906c-10.719-3.656-23.896-0.302-30.438,6.417l-43.177,32.594    c-50.073-26.729-80.917-57.563-107.281-107.26l31.635-42.052c8.219-8.208,11.167-20.198,7.635-31.448    c-7.26-21.99-10.948-45.063-10.948-68.583C132.146,13.823,118.323,0,101.333,0H30.813C13.823,0,0,13.823,0,30.813    C0,225.563,158.438,384,353.188,384c16.99,0,30.813-13.823,30.813-30.813v-70.323C384,265.875,370.177,252.052,353.188,252.052z"
   id="path2" />
	</g>
</g>
<g
   id="g8">
</g>
<g
   id="g10">
</g>
<g
   id="g12">
</g>
<g
   id="g14">
</g>
<g
   id="g16">
</g>
<g
   id="g18">
</g>
<g
   id="g20">
</g>
<g
   id="g22">
</g>
<g
   id="g24">
</g>
<g
   id="g26">
</g>
<g
   id="g28">
</g>
<g
   id="g30">
</g>
<g
   id="g32">
</g>
<g
   id="g34">
</g>
<g
   id="g36">
</g>
<path
   style="fill:#800000;stroke-width:1.62711859"
   d="M 330.95593,382.20132 C 237.72247,376.96284 145.06448,330.54068 85.134909,259.04365 34.044068,198.0914 5.6572299,126.53405 1.2732724,47.645856 -0.01296586,24.500328 2.0338129,16.425691 11.234815,8.3471035 19.628853,0.97703984 29.563939,-0.34405336 71.91862,0.27782514 c 40.98982,0.60183881 42.54325,0.95563586 52.1282,11.87228686 6.05322,6.894238 6.10986,7.129778 8.25998,34.351123 1.06272,13.454486 3.49208,28.305336 6.60569,40.381147 2.70864,10.50514 4.9248,20.904798 4.9248,23.110348 0,7.11763 -4.0604,14.02806 -22.59142,38.44854 l -18.18667,23.96669 3.53136,6.94856 c 6.28252,12.36192 20.38756,32.66329 31.9596,45.99941 15.96449,18.39816 36.63206,35.02311 61.88456,49.77983 l 10.51191,6.14279 22.91537,-17.38503 c 12.60347,-9.56178 25.14455,-18.63571 27.86906,-20.16429 6.59926,-3.70251 16.90912,-3.60887 29.99861,0.27244 15.59054,4.62294 37.91394,8.20035 51.23601,8.2108 6.37092,0.005 14.38106,0.78591 17.80033,1.73539 8.27358,2.29744 18.55399,11.81141 20.72514,19.17998 1.10964,3.766 1.55834,21.42382 1.23212,48.48734 l -0.5131,42.56435 -5.05386,6.24921 c -9.78457,12.09883 -15.31453,13.50795 -46.20038,11.77258 z"
   id="path45"
   inkscape:connector-curvature="0" /></svg>