<?xml version="1.0" encoding="UTF-8" standalone="no"?>
<!-- Generator: Adobe Illustrator 19.0.0, SVG Export Plug-In . SVG Version: 6.00 Build 0)  -->

<svg
   xmlns:dc="http://purl.org/dc/elements/1.1/"
   xmlns:cc="http://creativecommons.org/ns#"
   xmlns:rdf="http://www.w3.org/1999/02/22-rdf-syntax-ns#"
   xmlns:svg="http://www.w3.org/2000/svg"
   xmlns="http://www.w3.org/2000/svg"
   xmlns:sodipodi="http://sodipodi.sourceforge.net/DTD/sodipodi-0.dtd"
   xmlns:inkscape="http://www.inkscape.org/namespaces/inkscape"
   version="1.1"
   id="Layer_1"
   x="0px"
   y="0px"
   viewBox="0 0 512 512"
   style="enable-background:new 0 0 512 512;"
   xml:space="preserve"
   sodipodi:docname="pin.svg"
   inkscape:version="0.92.4 (5da689c313, 2019-01-14)"><metadata
   id="metadata43"><rdf:RDF><cc:Work
       rdf:about=""><dc:format>image/svg+xml</dc:format><dc:type
         rdf:resource="http://purl.org/dc/dcmitype/StillImage" /></cc:Work></rdf:RDF></metadata><defs
   id="defs41" /><sodipodi:namedview
   pagecolor="#ffffff"
   bordercolor="#666666"
   borderopacity="1"
   objecttolerance="10"
   gridtolerance="10"
   guidetolerance="10"
   inkscape:pageopacity="0"
   inkscape:pageshadow="2"
   inkscape:window-width="1366"
   inkscape:window-height="717"
   id="namedview39"
   showgrid="false"
   inkscape:zoom="0.4609375"
   inkscape:cx="256"
   inkscape:cy="256"
   inkscape:window-x="0"
   inkscape:window-y="27"
   inkscape:window-maximized="1"
   inkscape:current-layer="Layer_1" />
<g
   id="g6">
	<g
   id="g4">
		<path
   d="M256,0C153.755,0,70.573,83.182,70.573,185.426c0,126.888,165.939,313.167,173.004,321.035    c6.636,7.391,18.222,7.378,24.846,0c7.065-7.868,173.004-194.147,173.004-321.035C441.425,83.182,358.244,0,256,0z M256,278.719    c-51.442,0-93.292-41.851-93.292-93.293S204.559,92.134,256,92.134s93.291,41.851,93.291,93.293S307.441,278.719,256,278.719z"
   id="path2" />
	</g>
</g>
<g
   id="g8">
</g>
<g
   id="g10">
</g>
<g
   id="g12">
</g>
<g
   id="g14">
</g>
<g
   id="g16">
</g>
<g
   id="g18">
</g>
<g
   id="g20">
</g>
<g
   id="g22">
</g>
<g
   id="g24">
</g>
<g
   id="g26">
</g>
<g
   id="g28">
</g>
<g
   id="g30">
</g>
<g
   id="g32">
</g>
<g
   id="g34">
</g>
<g
   id="g36">
</g>
<path
   style="fill:#800000;stroke-width:2.16949153"
   d="M 250.12776,509.04259 C 239.93485,503.97245 185.18741,434.74779 153.80946,387.25424 118.24095,333.41787 94.281025,285.9067 80.784817,242.45053 74.323297,221.64521 73.864826,218.02405 73.710637,186.57627 73.525416,148.79934 76.014984,135.84251 88.565432,109.26525 112.96435,57.597256 157.55248,20.573585 212.39322,6.4450688 234.73993,0.68792841 272.70324,0.25515346 295.65123,5.4959425 380.25394,24.817224 439.85111,98.902541 439.57424,184.40678 c -0.11911,36.76511 -8.43494,67.02423 -32.04626,116.60707 -26.41592,55.47242 -73.48497,126.32216 -121.43177,182.78276 -22.88071,26.94359 -26.89343,29.76009 -35.96845,25.24598 z m 39.49365,-235.57777 c 23.34651,-8.79798 44.91197,-30.31869 54.45919,-54.34618 3.76372,-9.47216 4.7412,-16.405 4.7412,-33.62711 0,-25.17594 -4.22558,-38.64095 -17.6853,-56.35494 -35.97531,-47.346176 -106.34697,-50.566118 -144.99716,-6.63452 -47.21965,53.67204 -21.57417,136.27633 47.9488,154.44346 14.36833,3.75461 40.71568,2.10321 55.53327,-3.48071 z"
   id="path45"
   inkscape:connector-curvature="0" /></svg>