<?xml version="1.0" encoding="UTF-8" standalone="no"?>
<!-- Generator: Adobe Illustrator 19.0.0, SVG Export Plug-In . SVG Version: 6.00 Build 0)  -->

<svg
   xmlns:dc="http://purl.org/dc/elements/1.1/"
   xmlns:cc="http://creativecommons.org/ns#"
   xmlns:rdf="http://www.w3.org/1999/02/22-rdf-syntax-ns#"
   xmlns:svg="http://www.w3.org/2000/svg"
   xmlns="http://www.w3.org/2000/svg"
   xmlns:sodipodi="http://sodipodi.sourceforge.net/DTD/sodipodi-0.dtd"
   xmlns:inkscape="http://www.inkscape.org/namespaces/inkscape"
   version="1.1"
   id="Layer_1"
   x="0px"
   y="0px"
   viewBox="0 0 504 504"
   style="enable-background:new 0 0 504 504;"
   xml:space="preserve"
   sodipodi:docname="snapchat.svg"
   inkscape:version="0.92.4 (5da689c313, 2019-01-14)"><metadata
   id="metadata43"><rdf:RDF><cc:Work
       rdf:about=""><dc:format>image/svg+xml</dc:format><dc:type
         rdf:resource="http://purl.org/dc/dcmitype/StillImage" /></cc:Work></rdf:RDF></metadata><defs
   id="defs41" /><sodipodi:namedview
   pagecolor="#ffffff"
   bordercolor="#666666"
   borderopacity="1"
   objecttolerance="10"
   gridtolerance="10"
   guidetolerance="10"
   inkscape:pageopacity="0"
   inkscape:pageshadow="2"
   inkscape:window-width="1366"
   inkscape:window-height="717"
   id="namedview39"
   showgrid="false"
   inkscape:zoom="0.46825397"
   inkscape:cx="252"
   inkscape:cy="252"
   inkscape:window-x="0"
   inkscape:window-y="27"
   inkscape:window-maximized="1"
   inkscape:current-layer="Layer_1" />
<g
   id="g6">
	<g
   id="g4">
		<path
   d="M377.6,0H126C56.8,0,0,56.8,0,126.4V378c0,69.2,56.8,126,126,126h251.6c69.6,0,126.4-56.8,126.4-126.4V126.4    C504,56.8,447.2,0,377.6,0z M402.8,334.8c-1.2,2.4-4,4.8-8.8,7.2c-6.4,3.2-16.4,5.6-29.6,7.6c-1.2,0.4-2.4,1.2-3.2,2.4    c-0.8,1.2-1.2,4-2,7.6l-0.4,2c-0.4,1.6-0.8,3.6-1.2,5.2c-0.8,2-2,3.2-4.4,3.2c-1.2,0-3.2,0-6.4-0.8c-4.4-0.8-10-2-17.2-2    c-4.4,0-8.4,0.4-12.4,1.2c-8.4,1.6-16,6.4-24,12c-10.8,7.6-22.8,16.4-41.2,16.4c-0.8,0-1.6,0-2,0c-0.4,0-0.4,0-0.8,0s-0.8,0-0.8,0    c-18.4,0-30.4-8.8-41.6-16.4c-7.6-5.2-14.8-10.4-23.6-12c-4-0.8-8.4-1.2-12.4-1.2c-7.2,0-12.8,1.2-16.8,2h-0.4    c-2,0.4-4.4,0.8-6.4,0.8c-2.4,0-4-0.8-4.8-3.2c-1.6-2.8-2.4-4.8-2.8-6.8l-0.4-1.2c-0.8-3.2-1.2-6-2.4-7.6c-0.4-1.2-1.6-2-2.8-2    c-13.2-2-23.2-4.8-30-7.6c-4.4-2-7.6-4.4-8.8-6.8c-0.4-0.8-0.4-1.6-0.4-2c0-0.4,0-0.4,0-0.8c1.6-1.6,2.4-2.4,3.6-2.8    c10.4-1.6,20-5.6,28.4-11.2c7.2-4.4,14-10.4,20-17.6c10.4-12,15.6-23.6,16.4-25.6v-0.4c2.8-5.2,3.2-10,1.6-13.6    c-3.2-7.2-12.8-10.4-19.6-12.4L144,248c-1.2-0.4-2.4-0.8-3.2-1.2c-4.8-2-8.4-4-10.4-6c-3.2-2.8-3.6-5.6-3.2-7.2c0.4-2,2-4.4,4.8-6    c3.6-2,8.4-2.8,11.2-1.2c9.2,4.4,16.8,5.6,22.4,2.8c1.6-0.8,2.4-2.4,2.4-4c0-2.4-0.4-4.8-0.4-7.2v-0.4    c-1.2-20.8-2.8-46.8,3.6-61.6c4.8-10.4,10.8-19.2,18.4-26.4c6.4-6,13.6-10.8,22-14.4c14.4-6.4,27.6-7.2,34.4-7.2h6    c6.8,0,20,0.8,34.4,7.2c8.4,3.6,15.6,8.4,22,14.4c7.6,7.2,14,16,18.4,26.4c6.8,14.8,4.8,40.8,3.6,61.2v1.2c0,1.6-0.4,2.8-0.4,4.4    v2c0,1.6,0.8,3.2,2.4,4c1.6,0.8,3.6,1.2,5.6,1.2c0,0,0.4,0,0.8,0c4.4-0.4,9.2-1.6,14.4-4c2-0.8,4-0.8,4.8-0.8c2,0,3.6,0.4,5.6,1.2    c4.4,1.6,7.6,4.8,7.6,8c0,1.2-0.4,3.2-2.8,5.6c-2.4,2.4-6,4.4-11.2,6.8c-0.8,0.4-2,0.8-2.8,0.8l-1.2,0.4    c-6.4,2-16.4,5.2-19.6,12.4c-1.6,3.6-1.2,8.4,1.6,14c0,0.4,0,0.4,0.4,0.8c3.6,8,23.6,47.2,64.8,54c1.6,0.4,2.8,1.6,2.8,3.6    C403.2,333.6,402.8,334.4,402.8,334.8z"
   id="path2" />
	</g>
</g>
<g
   id="g8">
</g>
<g
   id="g10">
</g>
<g
   id="g12">
</g>
<g
   id="g14">
</g>
<g
   id="g16">
</g>
<g
   id="g18">
</g>
<g
   id="g20">
</g>
<g
   id="g22">
</g>
<g
   id="g24">
</g>
<g
   id="g26">
</g>
<g
   id="g28">
</g>
<g
   id="g30">
</g>
<g
   id="g32">
</g>
<g
   id="g34">
</g>
<g
   id="g36">
</g>
<path
   style="fill:#ffffff;stroke-width:2.13559318"
   d="M 110.76074,501.83664 C 61.831848,495.1983 23.090794,462.05268 5.9565541,412.16949 2.1522923,401.09409 1.9220339,391.95288 1.9220339,252 1.9220339,87.336114 1.0949466,97.895627 16.391154,67.271186 25.928931,48.175662 51.089557,23.974304 71.328814,14.428068 100.20441,0.80833228 96.679082,1.0677966 252.85424,1.0677966 c 130.9969,0 143.08227,0.3022078 155.74582,3.8945925 45.07909,12.7879809 78.71993,46.5635189 89.89406,90.2539739 3.99843,15.633697 4.22452,24.024657 4.22452,156.783637 0,132.75898 -0.22609,141.14994 -4.22452,156.78364 -11.04349,43.17968 -44.2818,76.90196 -88.79006,90.08295 -11.46171,3.39435 -25.99737,3.80691 -149.37525,4.23958 -75.17288,0.26364 -142.47851,-0.30765 -149.56807,-1.26953 z M 276.57871,391.24409 c 6.33206,-3.28693 16.51314,-9.16869 22.62463,-13.07057 13.65519,-8.71816 26.3485,-11.30848 42.51846,-8.67677 13.61168,2.21536 17.9121,0.44666 17.9121,-7.36703 0,-7.67019 4.65854,-11.39187 17.48692,-13.97019 13.14712,-2.64237 26.29274,-10.14236 26.29274,-15.00084 0,-1.7265 -5.10232,-4.90144 -11.87533,-7.38951 -6.53141,-2.39932 -15.379,-6.57722 -19.66127,-9.28422 -16.02063,-10.12726 -37.87018,-39.85061 -37.87018,-51.51721 0,-6.21618 7.14253,-11.88505 21.63051,-17.16763 16.1085,-5.87346 20.70679,-13.10718 12.53712,-19.72259 -3.9309,-3.18306 -7.01572,-3.8783 -12.73676,-2.87058 -4.15223,0.7314 -11.06724,1.86619 -15.36666,2.52173 l -7.81717,1.19192 -0.75961,-33.84165 c -0.71145,-31.69643 -1.11798,-34.52472 -6.41293,-44.6171 -6.74474,-12.85578 -20.87692,-27.50781 -32.00994,-33.18746 -11.73818,-5.98837 -30.84112,-10.49473 -44.48829,-10.49473 -33.79501,0 -61.97015,16.95262 -76.96736,46.31029 -4.864,9.52149 -5.2608,12.63096 -5.35856,41.99223 -0.12324,37.01661 -0.46489,37.63326 -17.75643,32.04871 -10.03566,-3.24115 -11.19438,-3.23683 -16.22693,0.0607 -10.86724,7.12049 -5.76833,15.15289 14.40267,22.68876 7.19771,2.68905 13.76952,6.78313 15.7568,9.8161 3.12662,4.77183 3.11891,5.96305 -0.0931,14.37344 -4.80253,12.57525 -21.71593,33.08226 -34.21333,41.48268 -5.69437,3.8276 -15.51785,8.46062 -21.82996,10.29561 -8.412132,2.44545 -11.476561,4.3665 -11.476561,7.19445 0,6.00409 5.399571,9.14096 23.893351,13.8808 16.64853,4.2669 17.1708,4.59853 19.93335,12.65758 4.13502,12.06281 5.20574,12.60309 19.74962,9.96579 17.60787,-3.19291 30.05457,-0.11041 48.30576,11.9634 18.98605,12.55991 26.99379,15.37576 44.24917,15.55972 11.47681,0.12236 16.26566,-0.9663 25.62712,-5.82578 z"
   id="path45"
   inkscape:connector-curvature="0" /></svg>