<?xml version="1.0" encoding="UTF-8" standalone="no"?>
<!-- Generator: Adobe Illustrator 19.0.0, SVG Export Plug-In . SVG Version: 6.00 Build 0)  -->

<svg
   xmlns:dc="http://purl.org/dc/elements/1.1/"
   xmlns:cc="http://creativecommons.org/ns#"
   xmlns:rdf="http://www.w3.org/1999/02/22-rdf-syntax-ns#"
   xmlns:svg="http://www.w3.org/2000/svg"
   xmlns="http://www.w3.org/2000/svg"
   xmlns:sodipodi="http://sodipodi.sourceforge.net/DTD/sodipodi-0.dtd"
   xmlns:inkscape="http://www.inkscape.org/namespaces/inkscape"
   version="1.1"
   id="Capa_1"
   x="0px"
   y="0px"
   viewBox="0 0 512 512"
   style="enable-background:new 0 0 512 512;"
   xml:space="preserve"
   sodipodi:docname="twitter.svg"
   inkscape:version="0.92.4 (5da689c313, 2019-01-14)"><metadata
   id="metadata43"><rdf:RDF><cc:Work
       rdf:about=""><dc:format>image/svg+xml</dc:format><dc:type
         rdf:resource="http://purl.org/dc/dcmitype/StillImage" /></cc:Work></rdf:RDF></metadata><defs
   id="defs41" /><sodipodi:namedview
   pagecolor="#ffffff"
   bordercolor="#666666"
   borderopacity="1"
   objecttolerance="10"
   gridtolerance="10"
   guidetolerance="10"
   inkscape:pageopacity="0"
   inkscape:pageshadow="2"
   inkscape:window-width="1366"
   inkscape:window-height="717"
   id="namedview39"
   showgrid="false"
   inkscape:zoom="0.4609375"
   inkscape:cx="256"
   inkscape:cy="256"
   inkscape:window-x="0"
   inkscape:window-y="27"
   inkscape:window-maximized="1"
   inkscape:current-layer="Capa_1" />
<g
   id="g6">
	<g
   id="g4">
		<path
   d="M512,97.248c-19.04,8.352-39.328,13.888-60.48,16.576c21.76-12.992,38.368-33.408,46.176-58.016    c-20.288,12.096-42.688,20.64-66.56,25.408C411.872,60.704,384.416,48,354.464,48c-58.112,0-104.896,47.168-104.896,104.992    c0,8.32,0.704,16.32,2.432,23.936c-87.264-4.256-164.48-46.08-216.352-109.792c-9.056,15.712-14.368,33.696-14.368,53.056    c0,36.352,18.72,68.576,46.624,87.232c-16.864-0.32-33.408-5.216-47.424-12.928c0,0.32,0,0.736,0,1.152    c0,51.008,36.384,93.376,84.096,103.136c-8.544,2.336-17.856,3.456-27.52,3.456c-6.72,0-13.504-0.384-19.872-1.792    c13.6,41.568,52.192,72.128,98.08,73.12c-35.712,27.936-81.056,44.768-130.144,44.768c-8.608,0-16.864-0.384-25.12-1.44    C46.496,446.88,101.6,464,161.024,464c193.152,0,298.752-160,298.752-298.688c0-4.64-0.16-9.12-0.384-13.568    C480.224,136.96,497.728,118.496,512,97.248z"
   id="path2" />
	</g>
</g>
<g
   id="g8">
</g>
<g
   id="g10">
</g>
<g
   id="g12">
</g>
<g
   id="g14">
</g>
<g
   id="g16">
</g>
<g
   id="g18">
</g>
<g
   id="g20">
</g>
<g
   id="g22">
</g>
<g
   id="g24">
</g>
<g
   id="g26">
</g>
<g
   id="g28">
</g>
<g
   id="g30">
</g>
<g
   id="g32">
</g>
<g
   id="g34">
</g>
<g
   id="g36">
</g>
<path
   style="fill:#ffffff;stroke-width:2.16949153"
   d="M 110.42712,458.67262 C 84.325493,454.1012 54.483465,444.08246 29.066759,431.3579 L 6.2915254,419.95576 34.494915,418.46324 c 32.401135,-1.71466 56.503214,-7.80488 84.610165,-21.37969 16.67455,-8.05328 37.05895,-21.22235 35.40707,-22.87423 -0.43623,-0.43622 -7.86364,-2.26738 -16.50536,-4.06923 -28.64122,-5.97187 -56.773412,-25.62143 -70.232304,-49.05534 -10.737864,-18.6962 -10.895746,-18.42335 10.742998,-18.5663 27.382446,-0.18093 30.926336,-2.28267 14.179274,-8.40925 -17.726255,-6.4848 -33.469357,-16.80785 -44.434725,-29.13668 -12.4999,-14.05419 -23.641276,-38.20634 -25.113328,-54.44039 -0.653746,-7.20962 -0.808968,-13.10791 -0.344938,-13.10731 0.46403,6.1e-4 5.849241,1.90362 11.967136,4.22892 6.117896,2.32531 16.347776,4.92087 22.733067,5.7679 l 11.609619,1.54008 -14.055098,-13.922 C 33.148368,173.33709 22.562712,149.02505 22.562712,120.40678 c 0,-13.97467 4.402243,-34.108575 9.696139,-44.345839 l 3.185683,-6.160432 20.135359,19.942967 c 25.467392,25.224044 44.525677,39.305994 73.287907,54.151574 35.81987,18.48838 70.39938,28.92169 109.05597,32.90435 l 14.6831,1.51274 -1.35977,-14.90099 c -3.51384,-38.50642 15.8198,-77.809904 48.4918,-98.579354 17.30955,-11.003594 36.63551,-15.701448 59.77396,-14.530153 24.53049,1.241761 39.97291,6.8036 59.11253,21.290339 l 13.87207,10.499738 15.4017,-4.268025 c 8.47091,-2.347414 21.82697,-7.181388 29.6801,-10.742167 7.85313,-3.560778 14.82724,-5.925311 15.49804,-5.254516 4.04934,4.049338 -23.28155,39.991568 -35.30181,46.424618 -14.69171,7.86276 -1.20539,7.2366 28.80375,-1.33734 10.00229,-2.85776 18.59556,-4.78638 19.09613,-4.28582 1.84155,1.84156 -21.57462,27.77012 -34.0964,37.7547 l -12.91295,10.29649 -0.0174,17.07751 c -0.0571,54.5061 -20.20691,117.46459 -53.90117,168.41402 -15.41339,23.30671 -52.673,61.04409 -74.91359,75.87414 -35.49283,23.66668 -75.03563,39.48453 -116.19587,46.48049 -25.26812,4.29479 -78.81741,4.31907 -103.21092,0.0469 z"
   id="path45"
   inkscape:connector-curvature="0" /></svg>